<svg width="52" height="52" viewBox="0 0 52 52" fill="none" xmlns="http://www.w3.org/2000/svg">
<g clip-path="url(#clip0_801_43007)">
<path d="M33.668 25.4411H22.1406V18.0818C22.1406 16.5149 20.5931 15.4096 19.1105 15.9214L1.75236 21.907C0.704234 22.2685 0 23.2561 0 24.3647V48.1403C0 50.2404 1.70848 51.9489 3.80859 51.9489H33.668C34.928 51.9489 35.9531 50.9237 35.9531 49.6637V27.7262C35.9531 26.4662 34.928 25.4411 33.668 25.4411ZM2.249 23.3473C20.2235 17.3482 19.6361 16.9898 20.2978 17.4616C20.8735 17.8719 20.5066 17.9935 20.6173 25.4411H2.5998C1.38552 25.4411 1.10927 23.7402 2.249 23.3473ZM33.668 50.4255H3.80859C2.54861 50.4255 1.52344 49.4003 1.52344 48.1403V26.7303C2.15597 27.0193 33.6578 26.9646 33.668 26.9645C34.088 26.9645 34.4297 27.3062 34.4297 27.7262V32.6182H26.4909C23.3641 32.6182 20.8203 35.162 20.8203 38.2887C20.8203 41.4154 23.3641 43.9593 26.4909 43.9593H34.4297V49.6637C34.4297 50.0838 34.088 50.4255 33.668 50.4255ZM34.4297 34.1416V42.4358H26.4909C24.2041 42.4358 22.3438 40.5755 22.3438 38.2887C22.3438 36.002 24.2041 34.1416 26.4909 34.1416H34.4297Z" fill="#53565D"/>
<path d="M51 10.9688C51 16.4366 46.5499 20.8867 41.082 20.8867C35.6142 20.8867 31.1641 16.4366 31.1641 10.9688C31.1641 5.50092 35.6142 1.05078 41.082 1.05078C46.5499 1.05078 51 5.50092 51 10.9688Z" fill="#F9C659" stroke="#53565D" strokeWidth="2"/>
<path d="M39.3593 11.7688H40.3201V15.298H36.833V16.8214H40.3201V18.5859H41.8435V16.8214H42.8043C44.6174 16.8214 46.0923 15.3464 46.0923 13.5333C46.0923 11.7202 44.6174 10.2453 42.8043 10.2453H41.8435V6.71612H45.3305V5.19269H41.8435V3.35156H40.3201V5.19269H39.3593C37.5462 5.19269 36.0713 6.66768 36.0713 8.48077C36.0713 10.2939 37.5462 11.7688 39.3593 11.7688ZM42.8043 11.7688C43.7772 11.7688 44.5688 12.5603 44.5688 13.5333C44.5688 14.5064 43.7772 15.298 42.8043 15.298H41.8435V11.7688H42.8043ZM39.3593 6.71612H40.3201V10.2453H39.3593C38.3863 10.2453 37.5947 9.45374 37.5947 8.48077C37.5947 7.5077 38.3863 6.71612 39.3593 6.71612Z" fill="#53565D"/>
<path d="M18.1676 13.9769L17.7233 12.5197L13.9824 13.6602C17.2062 8.42264 23.1357 5.22565 29.3723 5.55746L29.4532 4.03615C22.6344 3.67215 16.2113 7.09704 12.6737 12.8765L11.5646 9.23879L10.1074 9.68313L11.9907 15.86L18.1676 13.9769Z" fill="#53565D"/>
<path d="M40.5126 27.4416L41.1817 28.8104L44.9127 26.9864C43.834 30.9699 41.306 34.482 37.8203 36.7741L38.6572 38.047C42.3002 35.6515 44.9829 32.0316 46.2328 27.908L47.7816 31.0761L49.1503 30.407L46.3142 24.6055L40.5126 27.4416Z" fill="#53565D"/>
<path d="M24.7471 38.2891C24.7471 39.549 25.7722 40.5742 27.0322 40.5742C28.2922 40.5742 29.3174 39.549 29.3174 38.2891C29.3174 37.0291 28.2922 36.0039 27.0322 36.0039C25.7722 36.0039 24.7471 37.0291 24.7471 38.2891ZM27.7939 38.2891C27.7939 39.2972 26.2705 39.2962 26.2705 38.2891C26.2705 37.869 27.7939 37.282 27.7939 38.2891Z" fill="#53565D"/>
</g>
<defs>
<clipPath id="clip0_801_43007">
<rect width="52" height="52" fill="white"/>
</clipPath>
</defs>
</svg>
