<svg xmlns="http://www.w3.org/2000/svg" xmlns:xlink="http://www.w3.org/1999/xlink" width="41" height="40.519" viewBox="0 0 41 40.519">
  <defs>
    <linearGradient id="linear-gradient" x1="0.5" x2="0.5" y2="1" gradientUnits="objectBoundingBox">
      <stop offset="0" stop-color="#fbcb65"/>
      <stop offset="1" stop-color="#ffb563"/>
    </linearGradient>
  </defs>
  <g id="Badge-6" transform="translate(-444 -1716)">
    <ellipse id="Ellipse_84" data-name="Ellipse 84" cx="12.871" cy="12.871" rx="12.871" ry="12.871" transform="translate(458.902 1729.549)" fill="url(#linear-gradient)"/>
    <g id="money_2_" data-name="money (2)" transform="translate(444 1716)">
      <g id="Group_522" data-name="Group 522" transform="translate(24.02 20.276)">
        <g id="Group_521" data-name="Group 521">
          <path id="Path_588" data-name="Path 588" d="M303.317,261.979a1.541,1.541,0,1,1,1.762-1.525.8.8,0,0,0,1.6,0,3.186,3.186,0,0,0-2.562-3.036V257a.8.8,0,1,0-1.6,0v.416a3.186,3.186,0,0,0-2.562,3.036,3.255,3.255,0,0,0,3.363,3.126,1.541,1.541,0,1,1-1.762,1.525.8.8,0,1,0-1.6,0,3.186,3.186,0,0,0,2.563,3.036v.346a.8.8,0,0,0,1.6,0v-.346a3.186,3.186,0,0,0,2.562-3.036A3.255,3.255,0,0,0,303.317,261.979Z" transform="translate(-299.954 -256.201)" fill="#656b74"/>
        </g>
      </g>
      <g id="Group_524" data-name="Group 524" transform="translate(30.744 17.44)">
        <g id="Group_523" data-name="Group 523">
          <path id="Path_589" data-name="Path 589" d="M389.334,224.636a10.434,10.434,0,0,0-4.262-3.772.8.8,0,1,0-.694,1.443,8.816,8.816,0,0,1,3.971,12.075.8.8,0,1,0,1.414.752,10.422,10.422,0,0,0-.429-10.5Z" transform="translate(-383.924 -220.785)" fill="#656b74"/>
        </g>
      </g>
      <g id="Group_532" data-name="Group 532" transform="translate(0 0)">
        <g id="Group_531" data-name="Group 531" transform="translate(0 0)">
          <path id="Path_593" data-name="Path 593" d="M31.023,16.787a3.676,3.676,0,0,0-.356-.654h2.085a3.684,3.684,0,1,0,0-7.367H26.339A3.681,3.681,0,0,0,23.3,3H3.684a3.684,3.684,0,1,0,0,7.367H10.1a3.673,3.673,0,0,0,0,4.164H8.008A3.681,3.681,0,0,0,5.719,21.1a3.677,3.677,0,0,0,0,5.766,3.677,3.677,0,0,0,0,5.766A3.681,3.681,0,0,0,8.008,39.2h9.437A13.61,13.61,0,1,0,31.023,16.787Zm1.729-6.42a2.082,2.082,0,1,1,0,4.164H13.133a2.082,2.082,0,1,1,0-4.164ZM3.684,8.766a2.082,2.082,0,1,1,0-4.164H23.3a2.082,2.082,0,1,1,0,4.164Zm4.324,7.367H27.627a2.081,2.081,0,0,1,.908.209c-.379-.032-.762-.049-1.149-.049a13.571,13.571,0,0,0-9.633,4H8.008a2.082,2.082,0,1,1,0-4.164Zm0,5.766h8.377a13.574,13.574,0,0,0-2.058,4.164H8.008a2.082,2.082,0,1,1,0-4.164Zm0,5.766h5.951a13.624,13.624,0,0,0-.049,4.164h-5.9a2.082,2.082,0,1,1,0-4.164Zm0,9.93a2.082,2.082,0,1,1,0-4.164h6.229a13.56,13.56,0,0,0,1.921,4.164Zm19.379,4.324A12.012,12.012,0,1,1,39.4,29.906,12.025,12.025,0,0,1,27.387,41.918Z" transform="translate(0 -3)" fill="#656b74"/>
        </g>
      </g>
    </g>
  </g>
</svg>
