<?xml version="1.0" encoding="UTF-8" ?>
<!DOCTYPE svg PUBLIC "-//W3C//DTD SVG 1.1//EN" "http://www.w3.org/Graphics/SVG/1.1/DTD/svg11.dtd">
<svg width="72" height="72" viewBox="0 0 512 512" version="1.1" xmlns="http://www.w3.org/2000/svg">
<g id="#ffffffff">
</g>
<g id="#53565dff">
<path fill="#53565d" opacity="1.00" d=" M 140.90 59.85 C 150.05 47.50 165.67 40.41 180.96 41.11 C 268.64 41.29 356.32 41.43 444.01 41.60 C 458.25 41.90 472.57 48.44 481.19 59.95 C 487.59 68.15 491.12 78.61 490.94 89.02 C 490.96 143.34 490.94 197.66 490.95 251.98 C 491.27 263.92 486.78 275.94 478.64 284.70 C 469.87 294.20 457.02 300.03 444.02 299.70 C 441.47 299.72 438.93 299.70 436.38 299.66 C 436.20 325.76 436.43 351.85 436.27 377.95 C 436.27 382.20 432.36 386.14 428.02 385.66 C 424.67 385.66 422.47 382.81 420.35 380.62 C 407.42 366.44 394.54 352.22 381.61 338.03 C 381.58 349.51 377.42 361.04 369.69 369.58 C 360.82 379.69 347.38 385.38 333.98 385.28 C 291.17 385.34 248.36 385.74 205.55 385.61 C 180.10 413.14 155.12 441.12 129.76 468.73 C 128.17 470.25 126.32 471.83 123.99 471.82 C 119.26 472.21 115.42 467.47 115.73 462.95 C 115.74 437.21 115.66 411.46 115.77 385.71 C 99.82 385.68 83.87 385.73 67.92 385.69 C 48.29 385.71 29.50 371.74 24.19 352.79 C 22.61 348.39 22.03 343.72 22.06 339.06 C 22.04 286.07 22.06 233.08 22.05 180.09 C 22.05 176.27 21.98 172.44 22.36 168.64 C 24.02 156.67 30.19 145.18 39.89 137.84 C 48.06 131.28 58.54 127.86 68.98 127.74 C 89.82 127.65 110.65 127.72 131.48 127.59 C 131.40 114.74 131.47 101.88 131.45 89.02 C 131.23 78.62 134.60 68.13 140.90 59.85 M 151.32 72.27 C 148.70 76.71 147.21 81.82 147.25 86.99 C 147.09 100.52 147.27 114.05 147.15 127.58 C 210.13 127.50 273.11 127.32 336.09 127.31 C 340.89 127.20 345.58 128.36 350.09 129.88 C 368.29 135.79 381.41 153.96 381.53 173.06 C 381.61 220.30 381.48 267.54 381.59 314.78 C 394.62 329.04 407.57 343.38 420.59 357.65 C 420.59 336.10 420.58 314.56 420.59 293.01 C 420.54 290.30 421.54 287.42 423.82 285.80 C 426.41 283.72 429.92 284.24 433.01 284.15 C 441.60 284.14 450.76 284.90 458.60 280.68 C 468.85 275.55 475.40 264.41 475.38 253.00 C 475.41 201.33 475.38 149.66 475.39 97.99 C 475.34 91.63 475.86 85.11 473.87 78.97 C 470.17 66.59 457.89 57.48 444.96 57.52 C 381.63 57.27 318.29 57.32 254.96 57.10 C 229.66 56.61 204.34 56.95 179.03 56.84 C 167.93 56.69 156.75 62.42 151.32 72.27 M 56.12 146.10 C 45.14 150.71 37.73 162.16 37.64 174.02 C 37.57 228.68 37.64 283.35 37.60 338.02 C 37.49 346.76 40.81 355.64 47.32 361.60 C 53.02 367.24 61.04 370.06 68.99 370.09 C 87.00 370.22 105.03 370.05 123.05 370.17 C 127.44 369.85 131.51 373.61 131.40 378.06 C 131.53 399.83 131.42 421.61 131.45 443.39 C 138.94 435.89 145.75 427.72 153.00 419.98 C 166.78 404.80 180.57 389.63 194.36 374.45 C 196.29 372.23 198.78 370.13 201.89 370.19 C 245.92 369.90 289.95 369.68 333.98 369.53 C 342.09 369.67 350.32 366.78 356.18 361.10 C 362.55 355.28 366.09 346.63 365.79 338.02 C 365.82 283.35 365.84 228.67 365.78 173.99 C 366.10 163.48 360.38 153.09 351.41 147.63 C 345.98 144.11 339.43 142.85 333.04 142.86 C 307.36 142.98 281.67 142.72 255.99 143.12 C 194.66 143.20 133.32 143.36 71.98 143.44 C 66.59 143.36 61.08 143.84 56.12 146.10 Z" />
<path fill="#53565d" opacity="1.00" d=" M 99.36 205.55 C 132.89 205.23 166.45 205.53 199.99 205.40 C 203.46 205.15 207.35 206.61 208.78 210.01 C 210.84 213.81 208.62 218.97 204.64 220.43 C 202.83 221.05 200.88 221.12 198.99 221.17 C 166.33 221.12 133.66 221.21 101.01 221.11 C 97.60 221.12 94.05 219.29 92.91 215.92 C 91.01 211.39 94.57 205.98 99.36 205.55 Z" />
<path fill="#53565d" opacity="1.00" d=" M 98.45 252.62 C 101.60 252.15 104.81 252.40 107.99 252.36 C 172.67 252.36 237.36 252.35 302.04 252.36 C 305.56 252.08 309.33 253.85 310.58 257.31 C 312.85 262.19 308.33 268.40 302.99 267.79 C 235.67 267.85 168.34 267.82 101.01 267.81 C 97.92 268.03 94.74 266.60 93.34 263.74 C 90.84 259.50 93.66 253.53 98.45 252.62 Z" />
<path fill="#53565d" opacity="1.00" d=" M 99.26 299.41 C 166.84 299.14 234.43 299.36 302.02 299.29 C 305.86 298.79 309.86 301.18 310.84 305.00 C 312.47 309.82 308.00 315.14 303.00 314.74 C 235.99 314.83 168.97 314.75 101.96 314.79 C 98.84 314.95 95.38 314.08 93.69 311.22 C 90.44 306.79 93.78 299.71 99.26 299.41 Z" />
</g>
<g id="#fbcb65ff">
<path fill="#fbcb65" opacity="1.00" d=" M 56.12 146.10 C 61.08 143.84 66.59 143.36 71.98 143.44 C 133.32 143.36 194.66 143.20 255.99 143.12 C 281.67 142.72 307.36 142.98 333.04 142.86 C 339.43 142.85 345.98 144.11 351.41 147.63 C 360.38 153.09 366.10 163.48 365.78 173.99 C 365.84 228.67 365.82 283.35 365.79 338.02 C 366.09 346.63 362.55 355.28 356.18 361.10 C 350.32 366.78 342.09 369.67 333.98 369.53 C 289.95 369.68 245.92 369.90 201.89 370.19 C 198.78 370.13 196.29 372.23 194.36 374.45 C 180.57 389.63 166.78 404.80 153.00 419.98 C 145.75 427.72 138.94 435.89 131.45 443.39 C 131.42 421.61 131.53 399.83 131.40 378.06 C 131.51 373.61 127.44 369.85 123.05 370.17 C 105.03 370.05 87.00 370.22 68.99 370.09 C 61.04 370.06 53.02 367.24 47.32 361.60 C 40.81 355.64 37.49 346.76 37.60 338.02 C 37.64 283.35 37.57 228.68 37.64 174.02 C 37.73 162.16 45.14 150.71 56.12 146.10 M 99.36 205.55 C 94.57 205.98 91.01 211.39 92.91 215.92 C 94.05 219.29 97.60 221.12 101.01 221.11 C 133.66 221.21 166.33 221.12 198.99 221.17 C 200.88 221.12 202.83 221.05 204.64 220.43 C 208.62 218.97 210.84 213.81 208.78 210.01 C 207.35 206.61 203.46 205.15 199.99 205.40 C 166.45 205.53 132.89 205.23 99.36 205.55 M 98.45 252.62 C 93.66 253.53 90.84 259.50 93.34 263.74 C 94.74 266.60 97.92 268.03 101.01 267.81 C 168.34 267.82 235.67 267.85 302.99 267.79 C 308.33 268.40 312.85 262.19 310.58 257.31 C 309.33 253.85 305.56 252.08 302.04 252.36 C 237.36 252.35 172.67 252.36 107.99 252.36 C 104.81 252.40 101.60 252.15 98.45 252.62 M 99.26 299.41 C 93.78 299.71 90.44 306.79 93.69 311.22 C 95.38 314.08 98.84 314.95 101.96 314.79 C 168.97 314.75 235.99 314.83 303.00 314.74 C 308.00 315.14 312.47 309.82 310.84 305.00 C 309.86 301.18 305.86 298.79 302.02 299.29 C 234.43 299.36 166.84 299.14 99.26 299.41 Z" />
</g>
</svg>
