<svg id="shopping-bag_2_" data-name="shopping-bag (2)" xmlns="http://www.w3.org/2000/svg" width="42.238" height="49.84" viewBox="0 0 42.238 49.84">
  <path id="Path_649" data-name="Path 649" d="M-10151.106,1967.975h14.327l-1.892-6.4-13.337,2.613Z" transform="translate(10164.422 -1952.164)" fill="#fbcb65"/>
  <path id="Path_650" data-name="Path 650" d="M-10143.358,1962.316l1.025-3.785,11.524,2.707-2.46,7.916-6.029-.369-1.312-6.469Z" transform="translate(10166.517 -1952.902)" fill="#fbcb65"/>
  <path id="Path_698" data-name="Path 698" d="M7.264,16.252,5.958,5.167,19.813,3.426l1.741,11.9Z" fill="#fbcb65"/>
  <g id="Group_577" data-name="Group 577" transform="translate(15.155)">
    <g id="Group_576" data-name="Group 576">
      <path id="Path_649-2" data-name="Path 649" d="M89.665,6.159a7.181,7.181,0,0,0-12.909-3.21.844.844,0,1,0,1.364,1A5.492,5.492,0,0,1,87.992,6.4a.846.846,0,0,0,.836.726.9.9,0,0,0,.12-.008A.845.845,0,0,0,89.665,6.159Z" transform="translate(-76.593)" fill="#53565d"/>
    </g>
  </g>
  <g id="Group_579" data-name="Group 579" transform="translate(1.689 10.981)">
    <g id="Group_578" data-name="Group 578" transform="translate(0)">
      <path id="Path_650-2" data-name="Path 650" d="M60.923,49.006l-2.534-4.224a.844.844,0,0,0-.724-.41H55.236a.845.845,0,1,0,0,1.689h1.95L58.707,48.6H24.521l1.521-2.534h.895a.845.845,0,0,0,0-1.689H25.564a.844.844,0,0,0-.724.41l-2.534,4.224a.845.845,0,0,0,.724,1.28H60.2a.845.845,0,0,0,.724-1.28Z" transform="translate(-22.185 -44.372)" fill="#53565d"/>
    </g>
  </g>
  <g id="Group_581" data-name="Group 581" transform="translate(22.27 4.733)">
    <g id="Group_580" data-name="Group 580" transform="translate(0)">
      <path id="Path_651" data-name="Path 651" d="M119.29,22.219a.843.843,0,0,0-.525-.377l-11.516-2.693a.844.844,0,0,0-1.015.63l-.868,3.712a.845.845,0,0,0,1.645.384l.676-2.889,9.87,2.309-1.551,6.631a.844.844,0,0,0,.63,1.014.854.854,0,0,0,.194.022.844.844,0,0,0,.821-.652l1.744-7.454A.841.841,0,0,0,119.29,22.219Z" transform="translate(-105.343 -19.126)" fill="#53565d"/>
    </g>
  </g>
  <g id="Group_583" data-name="Group 583" transform="translate(4.983 2.567)">
    <g id="Group_582" data-name="Group 582" transform="translate(0)">
      <path id="Path_652" data-name="Path 652" d="M52.076,17.629l-.77-6.51a.845.845,0,0,0-.938-.74L36.24,12.049a.845.845,0,0,0-.739.938l1.283,10.858a.845.845,0,0,0,.838.746.923.923,0,0,0,.1-.006.845.845,0,0,0,.739-.938l-1.184-10.02,12.451-1.472.67,5.671a.845.845,0,0,0,1.678-.2Z" transform="translate(-35.494 -10.374)" fill="#53565d"/>
    </g>
  </g>
  <g id="Group_585" data-name="Group 585" transform="translate(11.295 8.11)">
    <g id="Group_584" data-name="Group 584">
      <path id="Path_653" data-name="Path 653" d="M77.948,40.389l-1.677-6.973a.844.844,0,0,0-1.019-.623L61.644,36.065a.845.845,0,0,0-.624,1.019l.838,3.485a.845.845,0,1,0,1.643-.395L62.86,37.51l11.966-2.877,1.479,6.151a.845.845,0,0,0,1.643-.4Z" transform="translate(-60.997 -32.769)" fill="#53565d"/>
    </g>
  </g>
  <g id="Group_587" data-name="Group 587" transform="translate(0 15.206)">
    <g id="Group_586" data-name="Group 586">
      <path id="Path_654" data-name="Path 654" d="M55.906,62.242a.845.845,0,0,0-.844-.8H17.893a.845.845,0,0,0-.844.8L15.36,95.187a.845.845,0,0,0,.844.888H56.751a.845.845,0,0,0,.844-.888ZM17.092,94.386,18.7,63.13H54.259l1.6,31.255Z" transform="translate(-15.359 -61.441)" fill="#53565d"/>
    </g>
  </g>
</svg>
