<svg xmlns="http://www.w3.org/2000/svg" width="74.401" height="74.401" viewBox="0 0 74.401 74.401">
  <g id="ticket_1_" data-name="ticket (1)" transform="translate(-0.348 36.852) rotate(-45)">
    <path id="Path_858" data-name="Path 858" d="M-15654.288-2782.106l20.569,20.47,7.825-8.353-20.867-20.074Z" transform="translate(15678 2791.492)" fill="#fd8375"/>
    <path id="Path_857" data-name="Path 857" d="M31.825.708a.736.736,0,0,0-1.04,0L.215,31.277a.736.736,0,0,0,0,1.04l5.158,5.158a.735.735,0,0,0,.958.071,6.584,6.584,0,0,1,8.6.615,6.658,6.658,0,0,1,.631,8.6.736.736,0,0,0,.067.964l5.158,5.157a.736.736,0,0,0,1.04,0L52.394,22.317a.736.736,0,0,0,0-1.04ZM44.006,28.623l-4.2-4.142a.736.736,0,1,0-1.034,1.047l4.189,4.136L21.3,51.325l-4.2-4.2a8.164,8.164,0,0,0-1.119-9.989A8.053,8.053,0,0,0,5.984,36L1.776,31.8,23.439,10.135l4.2,4.252c.184.191,11.091,11.361,11.348,11.3s.757-.811.826-1.067S28.872,13.54,28.684,13.354l-4.2-4.259,6.826-6.826L50.833,21.8Zm0,0" transform="translate(0 0)" fill="#53565d"/>
  </g>
</svg>
